<svg width="32" height="32" viewBox="0 0 24 24" fill="currentColor" class="svg-icon" xmlns="http://www.w3.org/2000/svg">
  <path d="M18 7.25h-.25V6A3.754 3.754 0 0 0 14 2.25H6A3.754 3.754 0 0 0 2.25 6v10a.75.75 0 0 0 .466.694.741.741 0 0 0 .284.056.749.749 0 0 0 .536-.225l1.739-1.775h.975V16A3.754 3.754 0 0 0 10 19.75h8.725l1.739 1.775a.749.749 0 0 0 .536.225.741.741 0 0 0 .284-.056.75.75 0 0 0 .466-.694V11A3.754 3.754 0 0 0 18 7.25Zm-13.04 6a.75.75 0 0 0-.536.225l-.674.688V6A2.252 2.252 0 0 1 6 3.75h8A2.252 2.252 0 0 1 16.25 6v5A2.252 2.252 0 0 1 14 13.25Zm15.29 5.913-.674-.688a.75.75 0 0 0-.536-.225H10A2.252 2.252 0 0 1 7.75 16v-1.25H14A3.754 3.754 0 0 0 17.75 11V8.75H18A2.252 2.252 0 0 1 20.25 11Z"/>
</svg>