<svg width="32" height="32" viewBox="0 0 24 24" fill="currentColor" class="svg-icon" xmlns="http://www.w3.org/2000/svg">
  <path d="M20 12.257c0 3.487-.51 8.82-.51 9.025 0 .205-.203.513-.407.616-.102.102-.204.102-.408.102-.102 0-.204 0-.408-.102l-6.216-3.283h-.204l-6.216 3.283a.865.865 0 0 1-.714 0c-.204-.103-.407-.308-.407-.616 0-.205-.51-5.538-.51-9.025.102-2.257.306-5.231.51-7.385.101-1.333 1.12-2.36 2.445-2.564C8.382 2.205 10.42 2 12.051 2c1.63 0 3.669.205 5.095.308 1.325.102 2.344 1.23 2.446 2.564C19.796 7.026 20 10 20 12.257Z" fill="currentColor"/>
</svg>