<svg width="32" height="32" viewBox="0 0 24 24" fill="currentColor" class="svg-icon" xmlns="http://www.w3.org/2000/svg">
  <path d="M6.857 2.304C8.292 2.17 10.398 2 12 2c1.602 0 3.708.169 5.143.304a2.767 2.767 0 0 1 2.507 2.548c.142 1.897.35 5.056.35 7.385 0 1.785-.122 4.054-.242 5.867a179.948 179.948 0 0 1-.222 2.949l-.015.181-.006.063-.77-.066.77.067a.77.77 0 0 1-.403.61.778.778 0 0 1-.734 0l-6.256-3.337a.26.26 0 0 0-.244 0l-6.256 3.337a.778.778 0 0 1-.734 0 .77.77 0 0 1-.403-.61l.77-.067-.77.067-.006-.064-.015-.181c-.014-.158-.032-.387-.055-.672-.045-.571-.106-1.37-.166-2.277C4.122 16.29 4 14.021 4 12.236c0-2.33.208-5.488.35-7.385a2.767 2.767 0 0 1 2.507-2.548Zm-.925 17.693 5.213-2.781a1.817 1.817 0 0 1 1.71 0l5.213 2.781c.042-.537.093-1.226.144-1.995.12-1.806.24-4.033.24-5.765 0-2.266-.204-5.374-.346-7.27a1.224 1.224 0 0 0-1.11-1.131c-1.43-.135-3.473-.298-4.996-.298-1.523 0-3.565.163-4.997.298a1.224 1.224 0 0 0-1.109 1.13c-.142 1.897-.346 5.005-.346 7.27 0 1.733.12 3.96.24 5.766.05.769.102 1.458.144 1.995Z" fill="currentColor"/>
</svg>